<?xml version="1.0" standalone="no"?>
<!DOCTYPE svg PUBLIC "-//W3C//DTD SVG 20010904//EN"
 "http://www.w3.org/TR/2001/REC-SVG-20010904/DTD/svg10.dtd">
<svg version="1.0" xmlns="http://www.w3.org/2000/svg"
 width="1280.000000pt" height="640.000000pt" viewBox="0 0 1280.000000 640.000000"
 preserveAspectRatio="xMidYMid meet">
<g transform="translate(0.000000,640.000000) scale(0.100000,-0.100000)"
fill="#000000" stroke="none">
<path d="M2651 6281 c-21 -21 -23 -37 -41 -266 -13 -181 -28 -371 -40 -515 -9
-112 -19 -237 -40 -510 -6 -74 -15 -190 -20 -257 -6 -68 -14 -178 -20 -245 -5
-68 -14 -181 -20 -253 -13 -175 -29 -375 -40 -515 -10 -125 -24 -304 -40 -512
-11 -137 -22 -279 -40 -498 -5 -69 -14 -186 -20 -260 -21 -273 -31 -398 -40
-510 -5 -63 -14 -176 -20 -250 -6 -74 -15 -189 -20 -255 -18 -238 -30 -381
-36 -457 -6 -77 -17 -105 -28 -71 -7 21 -25 136 -66 413 -29 192 -45 298 -120
798 -16 108 -38 258 -50 332 -11 74 -25 164 -30 200 -6 36 -19 124 -29 195
-11 72 -33 221 -50 333 -17 111 -45 293 -61 405 -72 483 -70 477 -140 477 -72
0 -56 45 -256 -735 -26 -99 -48 -181 -49 -183 -1 -2 -302 -3 -669 -2 l-666 0
0 -80 0 -80 718 0 c673 0 720 1 735 18 16 18 27 53 101 341 25 95 47 176 51
179 12 12 25 -17 34 -78 33 -223 54 -362 61 -410 24 -160 50 -331 140 -932 17
-112 44 -293 61 -403 17 -110 39 -258 50 -330 10 -71 23 -159 29 -195 5 -36
19 -126 30 -200 24 -154 67 -446 110 -730 28 -186 30 -196 57 -217 35 -29 67
-29 94 -2 26 26 35 65 44 184 5 86 14 193 35 465 21 253 30 368 40 498 16 208
30 387 40 512 11 140 27 340 40 515 6 72 15 184 20 250 5 66 14 181 20 255 6
74 15 189 20 255 5 66 14 181 20 255 6 74 15 187 20 250 9 112 19 237 40 510
6 74 15 189 20 255 5 66 14 181 20 255 6 74 15 189 20 255 29 370 36 416 54
387 3 -5 10 -62 15 -128 6 -65 15 -168 21 -229 5 -60 15 -159 20 -220 5 -60
14 -159 20 -220 6 -60 15 -159 20 -220 5 -60 14 -159 20 -220 6 -60 15 -159
20 -220 13 -145 28 -305 40 -440 6 -60 15 -159 20 -220 5 -60 15 -159 20 -220
6 -60 15 -166 20 -235 6 -69 16 -137 21 -152 20 -50 101 -54 146 -6 25 26 67
102 213 378 56 107 108 198 114 202 6 4 593 8 1304 8 l1292 0 0 84 0 84 -112
95 c-132 109 -325 261 -563 442 -237 180 -292 224 -435 346 -397 340 -570 613
-627 989 -45 302 49 587 266 800 394 390 1056 447 1532 133 144 -94 256 -219
355 -395 27 -49 53 -86 59 -85 5 2 38 52 72 112 125 214 269 348 486 450 348
165 756 161 1097 -10 177 -90 313 -207 412 -355 106 -160 148 -301 148 -497 0
-394 -180 -720 -606 -1092 -110 -97 -212 -177 -674 -535 -175 -135 -374 -299
-437 -360 l-43 -40 0 -83 0 -83 1258 0 c691 0 1262 -4 1268 -8 6 -4 58 -95
114 -202 146 -276 188 -352 213 -378 45 -48 126 -44 146 6 5 15 15 83 21 152
5 69 14 175 20 235 5 61 15 160 20 220 5 61 14 160 20 220 6 61 15 160 20 220
5 61 14 160 20 220 6 61 15 160 20 220 5 61 14 160 20 220 6 61 15 160 20 220
17 189 30 326 40 440 6 61 15 164 21 229 5 66 12 123 15 128 19 30 25 -15 54
-394 18 -229 30 -379 40 -503 5 -66 14 -180 20 -252 16 -209 30 -388 40 -513
5 -63 14 -176 20 -250 6 -74 15 -189 20 -255 5 -66 14 -181 20 -255 6 -74 15
-189 20 -255 5 -66 14 -180 20 -252 16 -209 30 -388 40 -513 11 -140 27 -340
40 -515 6 -71 15 -186 20 -255 10 -119 17 -209 39 -490 6 -69 13 -165 16 -215
9 -119 18 -158 44 -184 27 -27 59 -27 94 2 27 21 29 31 57 217 43 284 86 576
110 730 11 74 25 164 30 200 6 36 19 124 29 195 11 72 33 221 50 333 17 111
45 292 61 402 17 110 44 291 60 403 30 199 64 420 80 527 7 48 28 187 61 410
9 61 22 90 34 78 4 -3 26 -84 51 -179 74 -288 85 -323 101 -341 15 -17 58 -18
655 -18 l638 0 0 80 0 80 -586 0 c-323 -1 -588 0 -589 2 -1 2 -23 84 -49 183
-200 780 -184 735 -256 735 -70 0 -68 6 -140 -477 -16 -112 -44 -294 -61 -405
-17 -112 -39 -261 -50 -333 -10 -71 -23 -159 -29 -195 -5 -36 -19 -126 -30
-200 -29 -188 -120 -798 -170 -1130 -41 -277 -59 -392 -66 -413 -11 -34 -22
-6 -28 71 -6 76 -18 219 -36 457 -5 66 -14 181 -20 255 -6 74 -15 187 -20 250
-10 125 -24 304 -40 513 -6 72 -15 188 -20 257 -19 225 -29 363 -40 495 -13
175 -29 375 -40 515 -9 112 -19 237 -40 510 -6 74 -15 190 -20 258 -6 67 -14
177 -20 245 -5 67 -14 183 -20 257 -21 273 -31 398 -40 510 -12 144 -27 334
-40 515 -18 229 -20 245 -41 266 -25 25 -90 26 -111 2 -22 -26 -26 -44 -37
-178 -10 -112 -14 -162 -41 -455 -5 -60 -14 -159 -20 -220 -5 -60 -14 -159
-20 -220 -5 -60 -14 -159 -20 -220 -5 -60 -14 -159 -20 -220 -5 -60 -14 -159
-20 -220 -5 -60 -14 -159 -20 -220 -5 -60 -14 -159 -20 -220 -5 -60 -14 -159
-20 -220 -5 -60 -14 -159 -20 -220 -5 -60 -14 -159 -20 -220 -19 -213 -30
-326 -41 -445 -6 -66 -14 -156 -17 -200 -5 -58 -11 -80 -21 -80 -7 0 -55 80
-108 180 -52 99 -104 190 -115 202 l-21 23 -1178 0 c-698 0 -1180 4 -1183 9
-10 15 151 148 534 441 433 332 694 565 836 747 211 270 314 546 314 843 0
364 -185 693 -507 904 -246 161 -473 226 -793 226 -197 0 -300 -14 -450 -62
-213 -68 -389 -176 -547 -336 l-101 -103 -39 41 c-21 23 -41 48 -46 55 -10 19
-152 135 -222 182 -138 93 -318 165 -502 202 -130 27 -426 30 -553 5 -357 -67
-668 -259 -848 -523 -73 -106 -97 -153 -133 -258 -42 -125 -52 -212 -46 -385
7 -215 43 -360 133 -540 92 -184 186 -307 376 -495 159 -157 258 -239 613
-510 384 -293 536 -415 532 -427 -3 -8 -373 -12 -1214 -14 l-1210 -2 -21 -23
c-11 -12 -63 -103 -115 -202 -53 -100 -101 -180 -108 -180 -10 0 -16 22 -21
80 -3 44 -11 134 -17 200 -11 119 -22 232 -41 445 -5 61 -14 160 -20 220 -5
61 -14 160 -20 220 -5 61 -14 160 -20 220 -5 61 -14 160 -20 220 -5 61 -14
160 -20 220 -5 61 -14 160 -20 220 -5 61 -14 160 -20 220 -5 61 -14 160 -20
220 -5 61 -14 160 -20 220 -5 61 -14 160 -20 220 -27 293 -31 343 -41 455 -11
134 -15 152 -37 178 -21 24 -86 23 -111 -2z"/>
</g>
</svg>
